<?xml version='1.0' encoding='utf8'?>
<svg class="toyplot-canvas-Canvas" xmlns:toyplot="http://www.sandia.gov/toyplot" xmlns:xlink="http://www.w3.org/1999/xlink" xmlns="http://www.w3.org/2000/svg" width="1000.0px" height="375.0px" viewBox="0 0 1000.0 375.0" preserveAspectRatio="xMidYMid meet" style="background-color:transparent;border-color:#292724;border-style:none;border-width:1.0;fill:rgb(16.1%,15.3%,14.1%);fill-opacity:1.0;font-family:Helvetica;font-size:12px;opacity:1.0;stroke:rgb(16.1%,15.3%,14.1%);stroke-opacity:1.0;stroke-width:1.0" id="t6391d13cba1c45bf8e48a15ddac3dc72"><g class="toyplot-coordinates-Cartesian" id="tca654654bde7445e9c6a2fce81016439"><clipPath id="tf53251e9f2cf471aa0e18917f954bda0"><rect x="30.0" y="30.0" width="940.0" height="315.0" /></clipPath><g clip-path="url(#tf53251e9f2cf471aa0e18917f954bda0)"><g class="toytree-mark-Toytree" id="td3ddcd3b54424246afb71bb022bc92d6"><g class="toytree-Edges" style="fill:none;stroke:rgb(14.9%,14.9%,14.9%);stroke-linecap:round;stroke-opacity:1;stroke-width:2"><path d="M 51.3 106.2 L 51.3 150.9 L 309.8 150.9" id="28,27" /><path d="M 309.8 150.9 L 309.8 102.0 L 414.3 102.0" id="27,26" /><path d="M 309.8 150.9 L 309.8 199.9 L 354.5 199.9" id="27,25" /><path d="M 414.3 102.0 L 414.3 124.5 L 456.0 124.5" id="26,24" /><path d="M 354.5 199.9 L 354.5 230.2 L 372.1 230.2" id="25,23" /><path d="M 456.0 124.5 L 456.0 106.5 L 557.9 106.5" id="24,22" /><path d="M 456.0 124.5 L 456.0 142.5 L 564.2 142.5" id="24,21" /><path d="M 372.1 230.2 L 372.1 196.5 L 565.8 196.5" id="23,20" /><path d="M 372.1 230.2 L 372.1 264.0 L 375.6 264.0" id="23,19" /><path d="M 375.6 264.0 L 375.6 237.0 L 479.8 237.0" id="19,18" /><path d="M 375.6 264.0 L 375.6 291.0 L 498.0 291.0" id="19,17" /><path d="M 479.8 237.0 L 479.8 250.5 L 578.1 250.5" id="18,16" /><path d="M 498.0 291.0 L 498.0 304.5 L 582.4 304.5" id="17,15" /><path d="M 51.3 106.2 L 51.3 61.5 L 168.8 61.5" id="28,14" /><path d="M 414.3 102.0 L 414.3 79.5 L 653.3 79.5" id="26,13" /><path d="M 557.9 106.5 L 557.9 97.5 L 653.3 97.5" id="22,12" /><path d="M 557.9 106.5 L 557.9 115.5 L 653.3 115.5" id="22,11" /><path d="M 564.2 142.5 L 564.2 133.5 L 653.3 133.5" id="21,10" /><path d="M 564.2 142.5 L 564.2 151.5 L 653.3 151.5" id="21,9" /><path d="M 354.5 199.9 L 354.5 169.5 L 653.3 169.5" id="25,8" /><path d="M 565.8 196.5 L 565.8 187.5 L 653.3 187.5" id="20,7" /><path d="M 565.8 196.5 L 565.8 205.5 L 653.3 205.5" id="20,6" /><path d="M 479.8 237.0 L 479.8 223.5 L 653.3 223.5" id="18,5" /><path d="M 578.1 250.5 L 578.1 241.5 L 653.3 241.5" id="16,4" /><path d="M 578.1 250.5 L 578.1 259.5 L 653.3 259.5" id="16,3" /><path d="M 498.0 291.0 L 498.0 277.5 L 653.3 277.5" id="17,2" /><path d="M 582.4 304.5 L 582.4 295.5 L 653.3 295.5" id="15,1" /><path d="M 582.4 304.5 L 582.4 313.5 L 653.3 313.5" id="15,0" /></g><g class="toytree-AlignEdges" style="stroke:rgb(66.3%,66.3%,66.3%);stroke-dasharray:2, 4;stroke-linecap:round;stroke-opacity:1.0;stroke-width:2"><path d="M 653.3 313.5 L 653.3 313.5" /><path d="M 653.3 295.5 L 653.3 295.5" /><path d="M 653.3 277.5 L 653.3 277.5" /><path d="M 653.3 259.5 L 653.3 259.5" /><path d="M 653.3 241.5 L 653.3 241.5" /><path d="M 653.3 223.5 L 653.3 223.5" /><path d="M 653.3 205.5 L 653.3 205.5" /><path d="M 653.3 187.5 L 653.3 187.5" /><path d="M 653.3 169.5 L 653.3 169.5" /><path d="M 653.3 151.5 L 653.3 151.5" /><path d="M 653.3 133.5 L 653.3 133.5" /><path d="M 653.3 115.5 L 653.3 115.5" /><path d="M 653.3 97.5 L 653.3 97.5" /><path d="M 653.3 79.5 L 653.3 79.5" /><path d="M 653.3 61.5 L 168.8 61.5" /></g><g class="toytree-TipLabels" style="fill:rgb(14.9%,14.9%,14.9%);fill-opacity:1.0;font-family:helvetica;font-size:11px;font-weight:normal;stroke:none;white-space:pre"><g transform="translate(653.29,313.46)rotate(0)"><a href="https://glottolog.org/resource/languoid/id/chol1278#############"><text x="15.00" y="2.81" style="" fill="#0000ff">NorthJeolla - Jollado [chol1278#############]</text></a></g><g transform="translate(653.29,295.46)rotate(0)"><a href="https://glottolog.org/resource/languoid/id/chol1278#############"><text x="15.00" y="2.81" style="" fill="#0000ff">SouthJeolla - Jollado [chol1278#############]</text></a></g><g transform="translate(653.29,277.47)rotate(0)"><a href="https://glottolog.org/resource/languoid/id/jeju1234#############"><text x="15.00" y="2.81" style="" fill="#0000ff">Jeju - Jejueo [jeju1234#############]</text></a></g><g transform="translate(653.29,259.48)rotate(0)"><a href="https://glottolog.org/resource/languoid/id/kyon1247#############"><text x="15.00" y="2.81" style="" fill="#0000ff">NorthGyeongsang - Kyongsangdo [kyon1247#############]</text></a></g><g transform="translate(653.29,241.48)rotate(0)"><a href="https://glottolog.org/resource/languoid/id/kyon1247#############"><text x="15.00" y="2.81" style="" fill="#0000ff">SouthGyeongsang - Kyongsangdo [kyon1247#############]</text></a></g><g transform="translate(653.29,223.49)rotate(0)"><a href="https://glottolog.org/resource/languoid/id/chun1248#############"><text x="15.00" y="2.81" style="" fill="#0000ff">Gangwon - Chungchong-Central Korean [chun1248#############]</text></a></g><g transform="translate(653.29,205.49)rotate(0)"><a href="https://glottolog.org/resource/languoid/id/chun1247#############"><text x="15.00" y="2.81" style="" fill="#0000ff">NorthChungcheong - Ch'ungch'ongdo [chun1247#############]</text></a></g><g transform="translate(653.29,187.50)rotate(0)"><a href="https://glottolog.org/resource/languoid/id/chun1247#############"><text x="15.00" y="2.81" style="" fill="#0000ff">SouthChungcheong - Ch'ungch'ongdo [chun1247#############]</text></a></g><g transform="translate(653.29,169.51)rotate(0)"><a href="https://glottolog.org/resource/languoid/id/seou1239#############"><text x="15.00" y="2.81" style="" fill="#0000ff">Gyeonggi - Seoul [seou1239#############]</text></a></g><g transform="translate(653.29,151.51)rotate(0)"><a href="https://glottolog.org/resource/languoid/id/hamg1238#############"><text x="15.00" y="2.81" style="" fill="#0000ff">NorthHamgyong - Hamgyongdo [hamg1238#############]</text></a></g><g transform="translate(653.29,133.52)rotate(0)"><a href="https://glottolog.org/resource/languoid/id/hamg1238#############"><text x="15.00" y="2.81" style="" fill="#0000ff">SouthHamgyong - Hamgyongdo [hamg1238#############]</text></a></g><g transform="translate(653.29,115.52)rotate(0)"><a href="https://glottolog.org/resource/languoid/id/pyon1239#############"><text x="15.00" y="2.81" style="" fill="#0000ff">NorthPyongan - P'yong'ando [pyon1239#############]</text></a></g><g transform="translate(653.29,97.53)rotate(0)"><a href="https://glottolog.org/resource/languoid/id/pyon1239#############"><text x="15.00" y="2.81" style="" fill="#0000ff">SouthPyongan - P'yong'ando [pyon1239#############]</text></a></g><g transform="translate(653.29,79.54)rotate(0)"><a href="https://glottolog.org/resource/languoid/id/hwan1238#############"><text x="15.00" y="2.81" style="" fill="#0000ff">Hwanghae - Hwanghaedo [hwan1238#############]</text></a></g><g transform="translate(653.29,61.54)rotate(0)"><a href="https://glottolog.org/resource/languoid/id/midd1372#############"><text x="15.00" y="2.81" style="" fill="#0000ff">MiddleKorean - Middle Korean [midd1372#############]</text></a></g></g></g></g><g class="toyplot-coordinates-Axis" id="t40f3b67ca9c44e96872c03e4e648d870" transform="translate(50.0,325.0)translate(0,20.0)"><line x1="1.3376683697165999" y1="0" x2="603.2884347422201" y2="0" style="" /><g><line x1="603.2884347422201" y1="0" x2="603.2884347422201" y2="-5" style="" /><line x1="536.4050162563864" y1="0" x2="536.4050162563864" y2="-5" style="" /><line x1="469.52159777055266" y1="0" x2="469.52159777055266" y2="-5" style="" /><line x1="402.63817928471894" y1="0" x2="402.63817928471894" y2="-5" style="" /><line x1="335.75476079888523" y1="0" x2="335.75476079888523" y2="-5" style="" /><line x1="268.8713423130515" y1="0" x2="268.8713423130515" y2="-5" style="" /><line x1="201.98792382721777" y1="0" x2="201.98792382721777" y2="-5" style="" /><line x1="135.10450534138403" y1="0" x2="135.10450534138403" y2="-5" style="" /><line x1="68.22108685555033" y1="0" x2="68.22108685555033" y2="-5" style="" /><line x1="1.3376683697165999" y1="0" x2="1.3376683697165999" y2="-5" style="" /></g><g><g transform="translate(603.2884347422201,6)"><text x="-2.78" y="8.555" style="fill:rgb(16.1%,15.3%,14.1%);fill-opacity:1.0;font-family:helvetica;font-size:10.0px;font-weight:normal;stroke:none;vertical-align:baseline;white-space:pre">0</text></g><g transform="translate(536.4050162563864,6)"><text x="-5.56" y="8.555" style="fill:rgb(16.1%,15.3%,14.1%);fill-opacity:1.0;font-family:helvetica;font-size:10.0px;font-weight:normal;stroke:none;vertical-align:baseline;white-space:pre">69</text></g><g transform="translate(469.52159777055266,6)"><text x="-8.34" y="8.555" style="fill:rgb(16.1%,15.3%,14.1%);fill-opacity:1.0;font-family:helvetica;font-size:10.0px;font-weight:normal;stroke:none;vertical-align:baseline;white-space:pre">138</text></g><g transform="translate(402.63817928471894,6)"><text x="-8.34" y="8.555" style="fill:rgb(16.1%,15.3%,14.1%);fill-opacity:1.0;font-family:helvetica;font-size:10.0px;font-weight:normal;stroke:none;vertical-align:baseline;white-space:pre">208</text></g><g transform="translate(335.75476079888523,6)"><text x="-8.34" y="8.555" style="fill:rgb(16.1%,15.3%,14.1%);fill-opacity:1.0;font-family:helvetica;font-size:10.0px;font-weight:normal;stroke:none;vertical-align:baseline;white-space:pre">277</text></g><g transform="translate(268.8713423130515,6)"><text x="-8.34" y="8.555" style="fill:rgb(16.1%,15.3%,14.1%);fill-opacity:1.0;font-family:helvetica;font-size:10.0px;font-weight:normal;stroke:none;vertical-align:baseline;white-space:pre">346</text></g><g transform="translate(201.98792382721777,6)"><text x="-8.34" y="8.555" style="fill:rgb(16.1%,15.3%,14.1%);fill-opacity:1.0;font-family:helvetica;font-size:10.0px;font-weight:normal;stroke:none;vertical-align:baseline;white-space:pre">415</text></g><g transform="translate(135.10450534138403,6)"><text x="-8.34" y="8.555" style="fill:rgb(16.1%,15.3%,14.1%);fill-opacity:1.0;font-family:helvetica;font-size:10.0px;font-weight:normal;stroke:none;vertical-align:baseline;white-space:pre">484</text></g><g transform="translate(68.22108685555033,6)"><text x="-8.34" y="8.555" style="fill:rgb(16.1%,15.3%,14.1%);fill-opacity:1.0;font-family:helvetica;font-size:10.0px;font-weight:normal;stroke:none;vertical-align:baseline;white-space:pre">554</text></g><g transform="translate(1.3376683697165999,6)"><text x="-8.34" y="8.555" style="fill:rgb(16.1%,15.3%,14.1%);fill-opacity:1.0;font-family:helvetica;font-size:10.0px;font-weight:normal;stroke:none;vertical-align:baseline;white-space:pre">623</text></g></g><g class="toyplot-coordinates-Axis-coordinates" style="visibility:hidden" transform=""><line x1="0" x2="0" y1="-3.0" y2="4.5" style="stroke:rgb(43.9%,50.2%,56.5%);stroke-opacity:1.0;stroke-width:1.0" /><text x="0" y="-6" style="alignment-baseline:alphabetic;fill:rgb(43.9%,50.2%,56.5%);fill-opacity:1.0;font-size:10px;font-weight:normal;stroke:none;text-anchor:middle" /></g></g><g transform="translate(500.0,42.0)"><text x="-275.82800000000003" y="-4.823" style="fill:rgb(16.1%,15.3%,14.1%);fill-opacity:1.0;font-family:helvetica;font-size:14.0px;font-weight:bold;stroke:none;vertical-align:baseline;white-space:pre">Summary tree of a Bayesian analysis of the Koreanic family with branches in years</text></g></g></svg>